<svg width="81" height="80" viewBox="0 0 81 80" fill="none" xmlns="http://www.w3.org/2000/svg">
<path d="M80.0012 40.0018C80.0012 17.9096 62.0919 0 40 0C17.918 0 0.0156245 17.8943 0 39.9736V70.9285C0.0120189 75.9418 4.0777 80 9.09408 80H40.0162C62.1009 79.9913 80.0012 62.088 80.0012 40.0018Z" fill="#294172"/>
<path fill-rule="evenodd" clip-rule="evenodd" d="M23.0632 38.1935C12.7054 38.1935 4.29907 46.5998 4.29907 56.9577C4.29907 67.3159 12.7054 75.7222 23.0632 75.7222C33.4214 75.7222 41.8277 67.3156 41.8277 56.9577V38.1935H23.0632ZM33.0509 46.9703H23.0632C17.5502 46.9703 13.0759 51.4447 13.0759 56.9577C13.0759 62.4711 17.5502 66.9454 23.0632 66.9454C28.5766 66.9454 33.0509 62.4708 33.0509 56.9577V46.9703Z" fill="#3C6EB4"/>
<path fill-rule="evenodd" clip-rule="evenodd" d="M51.7468 46.9976C62.1047 46.9976 70.511 38.5913 70.511 28.2334C70.511 17.8752 62.1047 9.46894 51.7468 9.46894C41.3887 9.46894 32.9824 17.8755 32.9824 28.2334L32.9824 46.9976L51.7468 46.9976ZM41.7591 38.2208L51.7468 38.2208C57.2599 38.2208 61.7342 33.7465 61.7342 28.2334C61.7342 22.72 57.2599 18.2457 51.7468 18.2457C46.2335 18.2457 41.7591 22.7203 41.7591 28.2334L41.7591 38.2208Z" fill="#3C6EB4"/>
<path d="M41.8318 38.2039V56.9368C41.8318 67.3043 33.4261 75.7103 23.0583 75.7103C21.4853 75.7103 20.367 75.533 18.9109 75.1523C16.7878 74.5965 15.0528 72.8558 15.0522 70.8312C15.0522 68.3836 16.8286 66.6036 19.4842 66.6036C20.748 66.6036 21.2068 66.8461 23.0583 66.8461C28.5242 66.8461 32.958 62.4186 32.9679 56.9527V48.3418C32.967 47.5753 32.336 46.9452 31.5695 46.9452C31.5689 46.9452 31.5683 46.9452 31.5677 46.9452L25.058 46.9437C22.6325 46.9437 20.6729 45.0093 20.6729 42.5773C20.6717 40.1299 22.653 38.2033 25.1045 38.2033" fill="white"/>
<path d="M32.9687 46.9872L32.9687 28.2543C32.9687 17.8868 41.3744 9.48081 51.7422 9.48081C53.3152 9.48081 54.4335 9.65808 55.8896 10.0388C58.0128 10.5947 59.7477 12.3353 59.7483 14.3599C59.7483 16.8075 57.9719 18.5875 55.3163 18.5875C54.0525 18.5875 53.5937 18.345 51.7422 18.345C46.2763 18.345 41.8426 22.7725 41.8327 28.2384L41.8327 36.8493C41.8336 37.6158 42.4646 38.2459 43.2311 38.2459C43.2317 38.2459 43.2323 38.2459 43.2329 38.2459L49.7426 38.2474C52.168 38.2474 54.1277 40.1818 54.1277 42.6138C54.1289 45.0612 52.1476 46.9878 49.696 46.9878" fill="white"/>
<path d="M73.1036 73.0769V71.415L72.3437 73.1571L71.6043 71.415V73.0769H71.1782V70.4523H71.625L72.3564 72.1289L73.0766 70.4523H73.5288V73.0769H73.1036ZM69.9989 70.8919V73.0769H69.5533V70.8919H68.8069V70.4523H70.7446V70.8919" fill="#3C6EB4"/>
</svg>
