<svg width="82" height="82" viewBox="0 0 82 82" fill="none" xmlns="http://www.w3.org/2000/svg">
<path d="M79.8009 39.7642C79.8009 18.1426 62.6805 1.0025 41.0393 1.0025C19.4176 1.02216 2.29724 18.1426 2.29724 39.7642C2.29724 61.3858 19.4176 78.5258 41.0589 78.5258C62.7002 78.5258 79.8009 61.4054 79.8009 39.7642Z" fill="url(#paint0_linear)"/>
<g filter="url(#filter0_d)">
<path d="M79.8009 39.7642C79.8009 18.1426 62.6805 1.0025 41.0393 1.0025C19.4176 1.02216 2.29724 18.1426 2.29724 39.7642C2.29724 61.3858 19.4176 78.5258 41.0589 78.5258C62.7002 78.5258 79.8009 61.4054 79.8009 39.7642Z" fill="url(#paint1_linear)"/>
</g>
<path d="M44.9705 27.086H45.0098V28.4422H46.5626V22.8403C46.5626 22.4275 46.484 22.0737 46.3267 21.7395C46.1695 21.4054 45.9533 21.1302 45.6584 20.8943C45.3636 20.6585 45.0294 20.4815 44.6167 20.3636C44.2039 20.2457 43.7715 20.1671 43.2604 20.1671C42.8083 20.1671 42.3759 20.226 41.9828 20.3636C41.5896 20.4815 41.2555 20.6585 40.9606 20.8943C40.6658 21.1302 40.4496 21.3857 40.2727 21.7002C40.0958 22.0147 40.0171 22.3489 39.9975 22.7027H41.5307C41.57 22.5258 41.6289 22.3685 41.7272 22.2309C41.8255 22.0933 41.9434 21.9557 42.081 21.8575C42.2186 21.7592 42.3955 21.6806 42.5921 21.6216C42.7887 21.5626 42.9852 21.543 43.2014 21.543C43.7518 21.543 44.1646 21.6609 44.4791 21.9164C44.7739 22.1523 44.9312 22.5258 44.9312 22.9975V23.6265L42.7297 23.7444C41.7076 23.8034 40.941 24.0393 40.4103 24.4521C39.8796 24.8648 39.6044 25.4152 39.6044 26.1425C39.6044 26.5159 39.6633 26.8501 39.8009 27.1449C39.9385 27.4398 40.1351 27.6953 40.371 27.9115C40.6068 28.1277 40.9017 28.285 41.2358 28.4029C41.57 28.5209 41.9434 28.5798 42.3562 28.5798C42.6314 28.5798 42.9066 28.5405 43.1621 28.4815C43.4176 28.4226 43.6732 28.3243 43.8894 28.1867C44.1056 28.0688 44.3022 27.9115 44.4987 27.7346C44.6953 27.4987 44.8525 27.3022 44.9705 27.086V27.086ZM44.3415 26.6928C44.1449 26.8501 43.9287 26.9877 43.6732 27.086C43.4176 27.1842 43.1228 27.2236 42.828 27.2236C42.3562 27.2236 41.9828 27.1253 41.7076 26.9091C41.4324 26.6928 41.2948 26.4177 41.2948 26.0639C41.2948 25.71 41.4324 25.4152 41.7272 25.2186C42.0024 25.0221 42.4348 24.9042 43.0049 24.8648L44.9901 24.7272V25.3562C44.9901 25.6314 44.9312 25.8673 44.8329 26.1032C44.6756 26.339 44.538 26.5356 44.3415 26.6928V26.6928Z" fill="#515151"/>
<path d="M55.742 44.9533L53.0491 44.285C49.7665 43.4594 48.4103 42.3783 48.4103 40.57C48.4103 38.2702 50.5528 36.6781 53.6584 36.6781C56.7641 36.6781 58.8673 38.2506 59.1031 40.8059H62.6216C62.484 36.5602 58.8869 33.5921 53.737 33.5921C48.4692 33.5921 44.7542 36.5405 44.7542 40.7665C44.7542 44.2064 46.8378 46.3095 51.4569 47.4496L54.6609 48.2358C57.9434 49.0614 59.3587 50.2801 59.3587 52.285C59.3587 54.6044 57.0196 56.2948 53.7764 56.2948C50.3955 56.2948 47.9189 54.6044 47.6437 52.0295H44.1056C44.3611 56.511 48.0761 59.3611 53.5208 59.3611C59.3587 59.3611 63.0343 56.4717 63.0343 51.8329C62.9754 48.2162 60.8722 46.1916 55.742 44.9533Z" fill="#515151"/>
<path d="M37.8944 28.4422V22.8796C37.8944 22.4668 37.8354 22.0933 37.6978 21.7788C37.5602 21.4643 37.403 21.1695 37.1671 20.9336C36.9313 20.6978 36.6561 20.5209 36.3219 20.3833C35.9878 20.2457 35.634 20.1867 35.2212 20.1867C34.9263 20.1867 34.6512 20.226 34.3956 20.3046C34.1401 20.3833 33.8846 20.4815 33.6684 20.6191C33.4521 20.7567 33.2556 20.9336 33.0787 21.1105C32.9018 21.2874 32.7642 21.5233 32.6659 21.7788H32.6266C32.4693 21.2678 32.1745 20.8747 31.7814 20.5995C31.3883 20.3243 30.8969 20.1867 30.3268 20.1867C30.0713 20.1867 29.8158 20.226 29.5603 20.285C29.3244 20.344 29.1082 20.4422 28.8919 20.5798C28.6954 20.7174 28.5185 20.855 28.3612 21.0516C28.204 21.2285 28.086 21.4447 27.9878 21.6609H27.9485V20.285H26.3956V28.4619H27.9288V23.4496C27.9288 23.1941 28.0664 22.9385 28.145 22.7223C28.2236 22.5061 28.3416 22.3096 28.4988 22.1327C28.6561 21.9754 28.833 21.8378 29.0492 21.7395C29.2654 21.6413 29.5013 21.6019 29.7372 21.6019C29.973 21.6019 30.1892 21.6413 30.3858 21.7199C30.5824 21.7985 30.7396 21.8968 30.8772 22.0344C31.0148 22.172 31.1131 22.3292 31.1917 22.5258C31.2703 22.7223 31.3096 22.9386 31.3096 23.1548V28.4619H32.9214V23.3906C32.9214 23.1351 32.9607 22.8796 33.059 22.6634C33.1376 22.4471 33.2556 22.2506 33.4128 22.0933C33.5701 21.9361 33.747 21.8182 33.9435 21.7199C34.1598 21.6413 34.376 21.5823 34.6315 21.5823C35.1426 21.5823 35.5357 21.7395 35.8109 22.0147C36.086 22.3096 36.2236 22.7223 36.2236 23.253V28.4226L37.8944 28.4422Z" fill="#515151"/>
<path d="M29.973 33.5921C22.8379 33.5921 18.3563 38.5651 18.3563 46.4865C18.3563 54.4078 22.8379 59.3808 29.973 59.3808C37.1082 59.3808 41.5897 54.4078 41.5897 46.4865C41.5701 38.5651 37.1082 33.5921 29.973 33.5921V33.5921ZM29.973 56.1965C25.0787 56.1965 22.0123 52.4422 22.0123 46.4865C22.0123 40.511 25.0787 36.7567 29.973 36.7567C34.8477 36.7567 37.9337 40.511 37.9337 46.4865C37.9141 52.4422 34.8477 56.1965 29.973 56.1965Z" fill="#515151"/>
<path d="M50.5528 22.3096C50.7494 22.0737 50.9656 21.8771 51.2408 21.7395C51.5159 21.6019 51.8108 21.543 52.1449 21.543C52.4201 21.543 52.6756 21.5823 52.8919 21.6609C53.1081 21.7395 53.3046 21.8378 53.4815 21.9754C53.6388 22.113 53.7764 22.2702 53.8747 22.4668C53.9729 22.6634 54.0516 22.8599 54.0909 23.0761H55.6437C55.6044 22.683 55.5061 22.3096 55.3292 21.9558C55.1523 21.6019 54.9164 21.3071 54.6216 21.0319C54.3267 20.7764 53.9533 20.5602 53.5405 20.4029C53.1277 20.2457 52.656 20.1671 52.1253 20.1671C51.5553 20.1671 51.0245 20.2653 50.5528 20.4619C50.0811 20.6585 49.6879 20.9336 49.3538 21.3071C49.0196 21.6806 48.7641 22.113 48.5872 22.6241C48.4103 23.1351 48.312 23.7051 48.312 24.3538C48.312 25.0024 48.4103 25.5921 48.5872 26.1032C48.7641 26.6142 49.0393 27.0663 49.3734 27.4201C49.7076 27.7739 50.1204 28.0491 50.5921 28.2457C51.0639 28.4422 51.5946 28.5405 52.1646 28.5405C52.656 28.5405 53.1081 28.4619 53.5209 28.344C53.9336 28.226 54.2874 28.0098 54.6019 27.7739C54.8968 27.5184 55.1523 27.2236 55.3489 26.8698C55.5454 26.5159 55.6634 26.1228 55.7027 25.7101H54.1498C54.0516 26.2015 53.8354 26.5553 53.5012 26.8108C53.167 27.0663 52.7346 27.1843 52.2039 27.1843C51.8697 27.1843 51.5749 27.1253 51.2997 26.9877C51.0245 26.8698 50.7887 26.6732 50.6118 26.4373C50.4152 26.2015 50.2776 25.9066 50.1597 25.5528C50.0614 25.199 50.0024 24.8059 50.0024 24.3734C50.0024 23.941 50.0614 23.5675 50.1597 23.2137C50.2186 22.8403 50.3562 22.5454 50.5528 22.3096V22.3096Z" fill="#515151"/>
<defs>
<filter id="filter0_d" x="0.297241" y="0.00250244" width="81.5037" height="81.5233" filterUnits="userSpaceOnUse" color-interpolation-filters="sRGB">
<feFlood flood-opacity="0" result="BackgroundImageFix"/>
<feColorMatrix in="SourceAlpha" type="matrix" values="0 0 0 0 0 0 0 0 0 0 0 0 0 0 0 0 0 0 127 0"/>
<feOffset dy="1"/>
<feGaussianBlur stdDeviation="1"/>
<feColorMatrix type="matrix" values="0 0 0 0 0 0 0 0 0 0 0 0 0 0 0 0 0 0 0.25 0"/>
<feBlend mode="normal" in2="BackgroundImageFix" result="effect1_dropShadow"/>
<feBlend mode="normal" in="SourceGraphic" in2="effect1_dropShadow" result="shape"/>
</filter>
<linearGradient id="paint0_linear" x1="41.0426" y1="78.5265" x2="41.0426" y2="1.0186" gradientUnits="userSpaceOnUse">
<stop stop-color="#F2F2F2"/>
<stop offset="0.5963" stop-color="#F7F7F7"/>
<stop offset="1" stop-color="#FEFEFE"/>
</linearGradient>
<linearGradient id="paint1_linear" x1="41.0426" y1="78.5265" x2="41.0426" y2="1.0186" gradientUnits="userSpaceOnUse">
<stop stop-color="#F2F2F2"/>
<stop offset="0.5963" stop-color="#F7F7F7"/>
<stop offset="1" stop-color="#FEFEFE"/>
</linearGradient>
</defs>
</svg>
