<svg width="81" height="80" viewBox="0 0 81 80" fill="none" xmlns="http://www.w3.org/2000/svg">
<path d="M80.0809 40.0005C80.0809 62.0908 62.1722 80 40.0804 80C17.9882 80 0.0797119 62.0908 0.0797119 40.0005C0.0797119 17.9087 17.9884 0 40.0804 0C62.1724 0 80.0809 17.9087 80.0809 40.0005Z" fill="#DD4814"/>
<path d="M12.8813 34.6588C9.93037 34.6588 7.53967 37.0498 7.53967 40.0004C7.53967 42.9497 9.93037 45.3404 12.8813 45.3404C15.8306 45.3404 18.2213 42.9497 18.2213 40.0004C18.2213 37.0498 15.8306 34.6588 12.8813 34.6588ZM51.012 58.9313C48.4576 60.4066 47.5818 63.671 49.0573 66.224C50.531 68.7784 53.7955 69.654 56.3499 68.1787C58.904 66.705 59.7798 63.4406 58.3045 60.8859C56.8308 58.3332 53.5645 57.4576 51.012 58.9313ZM24.4815 40.0004C24.4815 34.7228 27.1029 30.0602 31.1141 27.2367L27.2097 20.6973C22.5372 23.8206 19.0606 28.5933 17.6159 34.183C19.3017 35.5587 20.3808 37.6528 20.3808 40.0002C20.3808 42.3462 19.3017 44.4403 17.6159 45.816C19.0588 51.4073 22.5353 56.1803 27.2097 59.3036L31.1141 52.7625C27.1029 49.9407 24.4815 45.2783 24.4815 40.0004ZM40.0804 24.3999C48.2297 24.3999 54.9157 30.6482 55.6175 38.6166L63.2272 38.5044C62.8528 32.6216 60.2829 27.3405 56.3341 23.457C54.3035 24.2242 51.9579 24.1068 49.9306 22.9382C47.8997 21.7662 46.6264 19.7892 46.2784 17.6431C44.3047 17.0984 42.2275 16.8002 40.0799 16.8002C36.3882 16.8002 32.8977 17.6674 29.7987 19.2013L33.5095 25.851C35.5058 24.922 37.7328 24.3999 40.0804 24.3999ZM40.0804 55.5994C37.7328 55.5994 35.5058 55.077 33.5097 54.1482L29.7989 60.7977C32.898 62.3335 36.3884 63.2009 40.0804 63.2009C42.2279 63.2009 44.3051 62.9024 46.2786 62.3561C46.6267 60.21 47.9005 58.2349 49.9308 57.0608C51.9596 55.8903 54.3037 55.775 56.3343 56.5422C60.2832 52.6588 62.8531 47.3776 63.2275 41.4948L55.6158 41.3826C54.9157 49.3532 48.23 55.5994 40.0804 55.5994ZM51.0101 21.0663C53.5645 22.5414 56.8292 21.6677 58.3029 19.1133C59.7782 16.5589 58.9045 13.2943 56.3499 11.8187C53.7955 10.345 50.531 11.2206 49.0552 13.775C47.5818 16.328 48.4574 19.5926 51.0101 21.0663Z" fill="white"/>
</svg>
